<svg xmlns="http://www.w3.org/2000/svg" viewBox="0 0 2710 370.72"><defs><style>.cls-1{fill:#fff;}</style></defs><g id="Layer_2" data-name="Layer 2"><g id="Website"><path class="cls-1" d="M347.24,166.12A173.64,173.64,0,0,0,50.88,50.88,173.12,173.12,0,0,0,0,173.7V317.46a53.32,53.32,0,0,0,53.26,53.26H294.14a53.32,53.32,0,0,0,53.26-53.26v-42.6a54.74,54.74,0,0,0-.16-108.74Zm-17.1,151.34a36,36,0,0,1-36,36H53.26a36,36,0,0,1-36-36V173.7A156.43,156.43,0,0,1,284.32,63.09a155.32,155.32,0,0,1,45.62,102.67H145.84a54.74,54.74,0,0,0,0,109.47h184.3ZM341,258H145.84a37.47,37.47,0,1,1,0-74.94H341A37.47,37.47,0,0,1,341,258Z"/><path class="cls-1" d="M345.68,216H141.13a4.53,4.53,0,0,0,0,9.06H345.68a4.53,4.53,0,1,0,0-9.06Z"/><path class="cls-1" d="M118.25,136.13h60.5c3.76,0,6.81-2.28,6.81-5.09s-3.05-5.1-6.81-5.1h-60.5c-3.76,0-6.81,2.28-6.81,5.1S114.49,136.13,118.25,136.13Z"/><path class="cls-1" d="M243.79,136.13h46.09c3.76,0,6.8-2.28,6.8-5.09s-3-5.1-6.8-5.1H243.79c-3.76,0-6.81,2.28-6.81,5.1S240,136.13,243.79,136.13Z"/><path class="cls-1" d="M499.34,299.19V71.53h48.28q28.14,0,42.69,15.35t14.55,43.48V236.84q0,32-15.51,47.16t-44.6,15.19Zm32.62-197V268.49h15q13.74,0,19.5-6.87T572.24,240V130.36q0-13.43-5.43-20.78T547,102.23Z"/><path class="cls-1" d="M741.07,71.53V248a51.57,51.57,0,0,1-15.35,37.41,54.32,54.32,0,0,1-17,11.51,50.91,50.91,0,0,1-20.46,4.15A49.74,49.74,0,0,1,668,297a55.5,55.5,0,0,1-28.3-28.3A50.55,50.55,0,0,1,635.55,248V71.53h32.62v173.3q0,12.15,5.75,17.91a20.88,20.88,0,0,0,28.78,0q5.74-5.76,5.75-17.91V71.53Z"/><path class="cls-1" d="M771.76,299.19V71.53h31.33L845,192.07h.64L887.19,71.53h31.65V299.19H886.23V160.74h-.64l-32.3,97.84H837l-32-97.84h-.64V299.19Z"/><path class="cls-1" d="M949.54,299.19V71.53h47.64q15.66,0,26.7,4.8a50.28,50.28,0,0,1,18.06,12.79A47.86,47.86,0,0,1,1052,107.5a76.35,76.35,0,0,1,3,21.58v8.32a72.5,72.5,0,0,1-1.44,15.66,38,38,0,0,1-4.31,11.2q-5.44,9-16.63,15.34a35.41,35.41,0,0,1,16.94,16q5.45,10.54,5.44,28.78v12.79q0,30.06-14.55,46t-46.52,16Zm32.61-197V164.9h14.71q16.3,0,21.9-8.16t5.6-23.82q0-15.34-6.24-23t-22.54-7.67Zm0,91.44v72.9h14.07q9.9,0,15.51-2.87a19.94,19.94,0,0,0,8.47-8,30.11,30.11,0,0,0,3.52-12.15q.63-7,.64-15.35a102.51,102.51,0,0,0-1-15,27.41,27.41,0,0,0-3.84-10.88,18.46,18.46,0,0,0-8.63-6.55q-5.45-2.07-14.39-2.08Z"/><path class="cls-1" d="M1145.21,299.19V71.53h48.28q28.14,0,42.69,15.35t14.55,43.48V236.84q0,32-15.51,47.16t-44.6,15.19Zm32.62-197V268.49h15q13.76,0,19.51-6.87t5.75-21.59V130.36q0-13.43-5.43-20.78t-19.83-7.35Z"/><path class="cls-1" d="M1386.93,71.53V248a51.51,51.51,0,0,1-15.34,37.41A54.32,54.32,0,0,1,1354.64,297a50.91,50.91,0,0,1-20.46,4.15,49.82,49.82,0,0,1-20.31-4.15,55.53,55.53,0,0,1-28.29-28.3,50.39,50.39,0,0,1-4.16-20.62V71.53H1314v173.3q0,12.15,5.76,17.91a20.88,20.88,0,0,0,28.78,0q5.75-5.76,5.75-17.91V71.53Z"/><path class="cls-1" d="M1521.22,234.28v14.07a50.73,50.73,0,0,1-4,20,55.52,55.52,0,0,1-11,16.79,53.38,53.38,0,0,1-16.47,11.67,48.18,48.18,0,0,1-20.3,4.31,73.25,73.25,0,0,1-18.87-2.55,44.59,44.59,0,0,1-17.26-9,49.39,49.39,0,0,1-12.63-16.46q-5-10.08-5-25.74V122.05a55.38,55.38,0,0,1,3.84-20.78,48.76,48.76,0,0,1,10.87-16.63,50.5,50.5,0,0,1,16.78-11,56.51,56.51,0,0,1,21.59-4q23,0,37.41,15a53.67,53.67,0,0,1,11,17.43,58.9,58.9,0,0,1,4,21.9v12.79h-32.61V125.89a26.42,26.42,0,0,0-5.43-16.63,17.62,17.62,0,0,0-14.71-7q-12.17,0-16.15,7.51t-4,19V245.15q0,9.91,4.32,16.63t15.51,6.71a23.53,23.53,0,0,0,6.87-1.12,20.59,20.59,0,0,0,6.88-3.67,19.64,19.64,0,0,0,4.79-7,28.45,28.45,0,0,0,1.92-11.19V234.28Z"/><path class="cls-1" d="M1547.76,299.19V71.53h32.62V175.45h.63l47.65-103.92h32.61l-44.44,91.13,52.75,136.53h-34.53l-37.09-101-17.58,32.93v68.11Z"/><path class="cls-1" d="M1847,234.28v14.07a50.73,50.73,0,0,1-4,20,55.52,55.52,0,0,1-11,16.79,53.38,53.38,0,0,1-16.47,11.67,48.18,48.18,0,0,1-20.3,4.31,73.25,73.25,0,0,1-18.87-2.55,44.59,44.59,0,0,1-17.26-9,49.39,49.39,0,0,1-12.63-16.46q-5-10.08-5-25.74V122.05a55.38,55.38,0,0,1,3.84-20.78,48.76,48.76,0,0,1,10.87-16.63,50.5,50.5,0,0,1,16.78-11,56.51,56.51,0,0,1,21.59-4q23,0,37.41,15a53.67,53.67,0,0,1,11,17.43,58.9,58.9,0,0,1,4,21.9v12.79h-32.61V125.89a26.42,26.42,0,0,0-5.43-16.63,17.62,17.62,0,0,0-14.71-7q-12.16,0-16.15,7.51t-4,19V245.15q0,9.91,4.32,16.63t15.51,6.71a23.53,23.53,0,0,0,6.87-1.12,20.59,20.59,0,0,0,6.88-3.67,19.64,19.64,0,0,0,4.79-7,28.45,28.45,0,0,0,1.92-11.19V234.28Z"/><path class="cls-1" d="M1858.86,299.19,1909.7,71.53h27.18l50.84,227.66h-32.61l-9.6-48.92h-44.44l-9.59,48.92Zm80.58-79.62-16-82.49h-.64l-16,82.49Z"/><path class="cls-1" d="M2003.71,299.19V71.53H2035l41.89,120.54h.64l41.56-120.54h31.66V299.19h-32.62V160.74h-.64l-32.29,97.84h-16.31l-32-97.84h-.64V299.19Z"/><path class="cls-1" d="M2181.48,299.19V71.53h48.92a72.58,72.58,0,0,1,23.66,3.52,45.5,45.5,0,0,1,18.55,12.47,48.79,48.79,0,0,1,11.51,20.94q3.2,12,3.2,32.45a161.14,161.14,0,0,1-1.76,25.9,54.22,54.22,0,0,1-7.52,19.83,47.49,47.49,0,0,1-17.9,17.42q-11.2,6.24-29.42,6.24h-16.63v88.89Zm32.61-197V179.6h15.67q9.91,0,15.35-2.87a18.17,18.17,0,0,0,8-8,29.11,29.11,0,0,0,3-11.83q.48-7,.48-15.67c0-5.32-.11-10.39-.32-15.18a32.68,32.68,0,0,0-2.88-12.63,18.17,18.17,0,0,0-7.67-8.32q-5.11-2.86-14.71-2.87Z"/><path class="cls-1" d="M2417.13,137.08h-32.61v-7.36a34.8,34.8,0,0,0-5.28-19.34q-5.28-8.16-17.75-8.15-6.7,0-10.87,2.55a21.42,21.42,0,0,0-6.71,6.4,26.92,26.92,0,0,0-3.52,9.43,61.6,61.6,0,0,0-1,11,107.89,107.89,0,0,0,.48,11.19,21.26,21.26,0,0,0,2.4,8,17.7,17.7,0,0,0,5.6,6.07A50.85,50.85,0,0,0,2358,162l24.94,9.91a61.79,61.79,0,0,1,17.58,9.75,42,42,0,0,1,10.55,12.95,60.36,60.36,0,0,1,4.8,17.43,172.89,172.89,0,0,1,1.28,22.22,117.13,117.13,0,0,1-2.88,26.7,56.31,56.31,0,0,1-9.27,20.94A46,46,0,0,1,2387.39,296q-10.87,5.11-26.53,5.11a58.1,58.1,0,0,1-22.07-4.15,52.46,52.46,0,0,1-17.58-11.51,55.64,55.64,0,0,1-11.67-17.11,51.9,51.9,0,0,1-4.32-21.26V234.92h32.61v10.23a26.64,26.64,0,0,0,5.28,16.15q5.28,7.18,17.75,7.19,8.31,0,12.94-2.4a17.22,17.22,0,0,0,7.2-6.87,25.33,25.33,0,0,0,3-10.71q.48-6.24.48-13.91a139.56,139.56,0,0,0-.64-14.71,25.36,25.36,0,0,0-2.56-9.27,18.22,18.22,0,0,0-5.92-5.76,76.65,76.65,0,0,0-9.75-4.79l-23.34-9.6q-21.11-8.62-28.3-22.86T2306.82,132a82.55,82.55,0,0,1,3.52-24.3,55.18,55.18,0,0,1,10.55-19.82A48.35,48.35,0,0,1,2338,74.57q10.4-4.95,24.78-5A54.23,54.23,0,0,1,2385,74.09a57.39,57.39,0,0,1,17.42,11.83q14.7,15.35,14.71,35.17Z"/><path class="cls-1" d="M2442.39,299.19V71.53H2475V299.19Z"/><path class="cls-1" d="M2528.08,299.19v-197h-37.73V71.53h108.07v30.7h-37.73v197Z"/><path class="cls-1" d="M2612.8,299.19V71.53H2710v30.7h-64.58v66.82h56.27v30.7h-56.27v66.82H2710v32.62Z"/></g></g></svg>