<svg xmlns="http://www.w3.org/2000/svg" viewBox="0 0 642.45 601.88"><defs><style>.cls-1{fill:#fff;}</style></defs><g id="Layer_2" data-name="Layer 2"><g id="Logo"><path class="cls-1" d="M563.76,269.71A282.16,282.16,0,0,0,172.24,22.17,281.8,281.8,0,0,0,0,282v233.4a86.57,86.57,0,0,0,86.47,86.47H477.56A86.57,86.57,0,0,0,564,515.41V446.24a88.86,88.86,0,0,0-.26-176.53ZM536,515.41a58.49,58.49,0,0,1-58.43,58.43H86.47A58.5,58.5,0,0,1,28,515.41V282A254,254,0,0,1,461.6,102.42a252.16,252.16,0,0,1,74.07,166.7H236.78a88.87,88.87,0,0,0,0,177.74H536Zm17.6-96.59H236.78a60.83,60.83,0,0,1,0-121.66H553.59a60.83,60.83,0,0,1,0,121.66Z"/><path class="cls-1" d="M561.23,350.63H229.13a7.36,7.36,0,1,0,0,14.72h332.1a7.36,7.36,0,0,0,0-14.72Z"/><path class="cls-1" d="M192,221h98.23c6.1,0,11.05-3.7,11.05-8.27s-4.95-8.27-11.05-8.27H192c-6.1,0-11,3.71-11,8.27S185.88,221,192,221Z"/><path class="cls-1" d="M395.8,221h74.83c6.1,0,11.05-3.7,11.05-8.27s-4.95-8.27-11.05-8.27H395.8c-6.1,0-11.05,3.71-11.05,8.27S389.7,221,395.8,221Z"/></g></g></svg>