<?xml version="1.0" encoding="UTF-8"?>
<svg width="208px" height="196px" viewBox="0 0 208 196" version="1.1" xmlns="http://www.w3.org/2000/svg" xmlns:xlink="http://www.w3.org/1999/xlink">
    <title>Logo svg</title>
    <defs>
        <filter x="-6.3%" y="-6.7%" width="112.6%" height="113.5%" filterUnits="objectBoundingBox" id="filter-1">
            <feOffset dx="0" dy="2" in="SourceAlpha" result="shadowOffsetOuter1"></feOffset>
            <feGaussianBlur stdDeviation="2" in="shadowOffsetOuter1" result="shadowBlurOuter1"></feGaussianBlur>
            <feColorMatrix values="0 0 0 0 0   0 0 0 0 0   0 0 0 0 0  0 0 0 0.5 0" type="matrix" in="shadowBlurOuter1" result="shadowMatrixOuter1"></feColorMatrix>
            <feMerge>
                <feMergeNode in="shadowMatrixOuter1"></feMergeNode>
                <feMergeNode in="SourceGraphic"></feMergeNode>
            </feMerge>
        </filter>
    </defs>
    <g id="Welcome" stroke="none" stroke-width="1" fill="none" fill-rule="evenodd">
        <g id="Desktop-02-Copy-6" transform="translate(-408.000000, -228.000000)" fill="#7AFF5E" fill-rule="nonzero">
            <g id="Main" transform="translate(312.000000, 126.000000)">
                <g id="Logo-svg" filter="url(#filter-1)" transform="translate(105.000000, 111.000000)">
                    <path d="M166.724107,79.7655906 C165.519076,52.4799075 151.038049,27.5109449 127.953508,12.9152437 C104.868966,-1.68045758 76.103109,-4.05527345 50.9375916,6.55705942 C20.0471663,19.5927076 -0.0237249297,49.8711973 2.10475073e-05,83.4002874 L2.10475073e-05,152.426995 C0.0163391073,166.543819 11.4558988,177.983703 25.5723244,178 L141.231673,178 C155.343481,177.978819 166.777168,166.542164 166.795083,152.429952 L166.795083,131.973323 C180.042599,130.412832 190.019588,119.174687 189.999971,105.835222 C189.980296,92.4957569 179.970246,81.2870506 166.718192,79.7655906 L166.724107,79.7655906 Z M158.514478,152.429952 C158.504698,161.969564 150.773973,169.700508 141.23463,169.710289 L25.5723244,169.710289 C16.0290375,169.705401 8.29206508,161.973503 8.28064701,152.429952 L8.28064701,83.4002874 C8.28426425,53.0194901 26.5867753,25.6319444 54.6547053,14.0069874 C82.7226353,2.3820304 115.029255,8.80867986 136.511728,30.2905353 C149.709789,43.4145395 157.523212,60.9997205 158.416886,79.5911015 L70.0243858,79.5911015 C55.5092113,79.5911015 43.7423374,91.358308 43.7423374,105.873893 C43.7423374,120.389478 55.5092113,132.156684 70.0243858,132.156684 L158.514478,132.156684 L158.514478,152.429952 Z M163.71943,123.864015 L70.0243858,123.864015 C60.0889963,123.864015 52.0347717,115.809563 52.0347717,105.873893 C52.0347717,95.9382224 60.0889963,87.8837702 70.0243858,87.8837702 L163.716473,87.8837702 C173.651862,87.8837702 181.706087,95.9382224 181.706087,105.873893 C181.706087,115.809563 173.651862,123.864015 163.716473,123.864015 L163.71943,123.864015 Z" id="Shape"></path>
                    <path d="M166.814198,103 L68.1858024,103 C66.9786171,103 66,104.119288 66,105.5 C66,106.880712 66.9786171,108 68.1858024,108 L166.814198,108 C168.021383,108 169,106.880712 169,105.5 C169,104.119288 168.021383,103 166.814198,103 L166.814198,103 Z" id="Path"></path>
                    <path d="M57.2008646,65 L85.784586,65 C87.5596109,65 89,63.8814994 89,62.5 C89,61.1185006 87.5596109,60 85.784586,60 L57.2008646,60 C55.4258397,60 54,61.1215236 54,62.5 C54,63.8784764 55.42002,65 57.2008646,65 Z" id="Path"></path>
                    <path d="M117.191994,65 L138.808006,65 C140.570102,65 142,63.8814994 142,62.5 C142,61.1185006 140.570102,60 138.808006,60 L117.191994,60 C115.429898,60 114,61.1215236 114,62.5 C114,63.8784764 115.429898,65 117.191994,65 Z" id="Path"></path>
                </g>
            </g>
        </g>
    </g>
</svg>